# xmcd
#
# Track frame offsets: 
#        150
#        9899
#        21428
#        33876
#        51096
#        63982
#        80149
#        99789
#        112842
#        125978
#        137018
#        148391
#        159716
#        172390
#        185329
#        206252
#
# Disc length: 2997 seconds
#
# Revision: 0
# Processed by: cddbd v1.5.2PL0 Copyright (c) Steve Scherf et al.
# Submitted via: ExactAudioCopy v1.0b1
#
DISCID=df0bb310
DTITLE=Folkgrass - The First Time
DYEAR=1999
DGENRE=Country
TTITLE0=Morning Sun
TTITLE1=Fox On the Run
TTITLE2=Mountain Memeories
TTITLE3=Home Sweet Home
TTITLE4=The First Time
TTITLE5=Bring Mary Home
TTITLE6=The Ballad of Ste. Annes Reel
TTITLE7=White Water Ride
TTITLE8=Angel From Heaven
TTITLE9=I Wonder How the Old Folks are at Home
TTITLE10=Steel Rails
TTITLE11=Big John MacNeil
TTITLE12=Emotions
TTITLE13=A La Claire Fontaine
TTITLE14=Will The Circle Be Unbroken
TTITLE15=Who Will Watch the Home Place
EXTD=
EXTT0=
EXTT1=
EXTT2=
EXTT3=
EXTT4=
EXTT5=
EXTT6=
EXTT7=
EXTT8=
EXTT9=
EXTT10=
EXTT11=
EXTT12=
EXTT13=
EXTT14=
EXTT15=
PLAYORDER=
